# xmcd
#
# Track frame offsets: 
#        150
#        22098
#        44027
#
# Disc length: 836 seconds
#
# Revision: 0
# Processed by: cddbd v1.5.2PL0 Copyright (c) Steve Scherf et al.
# Submitted via: ExactAudioCopy v0.99pb1
#
DISCID=25034203
DTITLE=Lana Lane - Covers Live
DYEAR=1900
DGENRE=Classic Rock
TTITLE0=Long Live Rock'N'Roll
TTITLE1=Seasons End
TTITLE2=Dream On
EXTD=
EXTT0=
EXTT1=
EXTT2=
PLAYORDER=
